<svg width="21" height="21" viewBox="0 0 21 21" fill="none" xmlns="http://www.w3.org/2000/svg">
<path d="M9.20975 17.5905C11.0692 17.5901 12.8752 16.9676 14.3399 15.8221L18.9453 20.4275L20.4266 18.9461L15.8213 14.3408C16.9674 12.8759 17.5903 11.0695 17.5907 9.20957C17.5907 4.58852 13.8308 0.828613 9.20975 0.828613C4.5887 0.828613 0.828796 4.58852 0.828796 9.20957C0.828796 13.8306 4.5887 17.5905 9.20975 17.5905ZM9.20975 2.92385C12.6763 2.92385 15.4955 5.74299 15.4955 9.20957C15.4955 12.6761 12.6763 15.4953 9.20975 15.4953C5.74318 15.4953 2.92403 12.6761 2.92403 9.20957C2.92403 5.74299 5.74318 2.92385 9.20975 2.92385Z" fill="white"/>
</svg>
